<svg width="321" height="43" viewBox="0 0 321 43" fill="none" xmlns="http://www.w3.org/2000/svg">
<path d="M20.2019 17.8124H28.7451C31.0041 17.8124 31.9654 16.4819 32.2537 15.4097C32.5541 14.273 32.0615 13.2267 29.9587 13.2267H21.4275L20.2019 17.8124ZM29.418 28.4307C30.0308 26.1572 28.1323 25.6275 25.621 25.6275H18.1231L16.6452 31.2209H24.1311C26.9307 31.2209 28.8172 30.7042 29.418 28.4307ZM41.6742 31.2338C39.0547 41.1028 28.2284 42.6788 21.3314 42.6788H0.976562L11.8509 1.75586H30.6797C39.0427 1.75586 47.8743 3.37056 45.4231 12.5937C44.4138 16.3786 41.8544 19.44 38.4058 21.1322C41.7943 23.3024 42.8517 26.7772 41.6742 31.2338Z" fill="white"/>
<path d="M78.635 31.2209L75.583 42.6788H41.7344L52.6087 1.75586H85.2317L82.1796 13.2267H62.1733L61.2361 16.7532H79.6924L77.0489 26.6997H58.5926L57.391 31.2209H78.635Z" fill="white"/>
<path d="M124.631 1.75586L121.579 13.2267H109.467L101.633 42.6788H89.0045L96.8268 13.2267H84.7148L87.7548 1.75586H124.631Z" fill="white"/>
<path d="M140.061 22.2173C143.581 22.2173 145.287 19.6467 145.804 17.722C146.309 15.7973 145.984 13.2267 142.452 13.2267H136.456L134.065 22.2173H140.061ZM142.944 1.75586C153.53 1.75586 161.713 4.58481 158.216 17.722C154.72 30.8592 145.047 33.6881 134.461 33.6881H131.013L128.621 42.6788H116.005L126.879 1.75586H142.944Z" fill="white"/>
<path d="M154.311 42.6788L165.185 1.75586H177.801L166.927 42.6788H154.311Z" fill="white"/>
<path d="M221.118 1.76758H219.856H204.801L197.603 10.4353L203.034 22.1903L197.579 33.8936L201.364 38.4535C203.551 41.0887 206.687 42.5871 209.967 42.5871H221.118L204.248 22.074L211.313 13.5613L221.118 1.76758Z" fill="white"/>
<path d="M203.034 22.202L195.44 13.0563L189.504 5.91292C187.317 3.29065 184.193 1.7793 180.901 1.7793H169.75L186.62 22.0857L169.75 42.5989H186.067L194.875 32.0064L203.034 22.202Z" fill="white"/>
<path d="M268.881 31.5428C266.478 31.5428 264.447 30.4319 264.447 28.1067C264.447 25.7945 266.405 24.6577 268.881 24.6577C271.584 24.6577 273.543 25.6911 273.543 28.1067C273.543 30.4577 271.224 31.5428 268.881 31.5428ZM271.056 16.1579C269.638 16.1579 265.901 16.5196 264.219 17.6564C264.219 17.6564 264.194 9.93167 269.566 9.93167C273.29 9.93167 274.432 13.0061 274.66 13.4969L284.946 10.0479C283.119 4.27377 277.736 -0.00195312 269.998 -0.00195312C260.986 -0.00195312 252.299 4.68713 252.299 22.6684C252.299 37.6915 259.725 42.8198 268.881 42.8198C278.025 42.8198 285.45 38.1566 285.45 29.4889C285.45 20.5758 280.212 16.1579 271.056 16.1579Z" fill="white"/>
<path d="M306.334 14.7623C304.123 14.7623 301.912 15.2403 299.81 16.0541L300.29 12.4759H317.569V0.992188H291.567L288.406 24.5151H300.47C301.348 23.6109 302.633 23.0425 304.075 23.0425C306.707 23.0425 308.833 24.9543 308.833 27.2924C308.833 29.6434 306.707 31.5423 304.075 31.5423C301.744 31.5423 299.798 30.0567 299.389 28.0804L287.962 31.5423C289.308 38.8795 296.085 42.8193 304.231 42.8193C313.351 42.8193 320.753 38.6211 320.753 28.7908C320.753 19.4772 315.454 14.7623 306.334 14.7623Z" fill="white"/>
<path d="M245.03 19.1159L249.512 12.7604V1.76758H221.118L216.023 12.7604H237.508L230.587 21.4023V25.6909H234.095C236.907 25.6909 239.178 26.5306 239.178 28.6878C239.178 30.8451 236.619 31.6847 234.095 31.6847C231.548 31.6847 229.313 30.0054 228.412 28.3907L217.694 31.7493C219.64 38.376 225.047 42.4838 234.095 42.4838C242.614 42.4838 250.593 39.0348 250.593 29.76C250.593 26.5177 250.593 21.7123 245.03 19.1159Z" fill="white"/>
</svg>
