<svg width="258" height="43" viewBox="0 0 258 43" fill="none" xmlns="http://www.w3.org/2000/svg">
<g clip-path="url(#clip0_21062_50799)">
<path d="M197.857 12.2894H202.615L204.994 0.791016H190.799L182.473 42.344H196.667L201.901 15.9372L197.857 12.2894Z" fill="white"/>
<path d="M50.9146 16.3337L52.1041 10.0691C52.342 8.87956 52.342 7.69008 52.0248 6.57989C51.7076 5.46969 51.2318 4.5181 50.5181 3.6458C49.8044 2.77351 48.9321 2.05981 47.9012 1.58401C46.8703 1.10821 45.6809 0.791016 44.4914 0.791016H18.6397L16.34 12.2894H16.2607H38.306C38.306 12.3687 38.306 12.3687 38.306 12.3687L37.8302 14.9856C37.8302 15.0649 37.7509 15.0649 37.7509 15.1442C37.7509 15.1442 37.7509 15.1442 37.6716 15.1442H19.512L16.34 12.2894H6.26896L0.242188 42.344H42.271C44.0949 42.344 45.7602 41.7889 47.1875 40.5994C48.6149 39.4892 49.4872 37.9032 49.8044 36.0793L51.7076 26.6427C51.8662 25.6911 51.8662 24.7395 51.6283 23.7879C51.3904 22.9949 50.9939 22.1226 50.4388 21.4089C49.963 20.8538 49.4079 20.2987 48.6942 19.9022C49.8044 19.0299 50.5974 17.7611 50.9146 16.3337ZM37.7509 25.5325L36.72 30.6869C36.72 30.7662 36.72 30.7662 36.6407 30.7662L36.5614 30.8455H17.3709L18.2432 26.4048C18.3225 25.8497 18.8776 25.3739 19.512 25.3739H37.7509C37.7509 25.4532 37.7509 25.4532 37.7509 25.5325Z" fill="white"/>
<path d="M68.2017 30.6885L68.9154 26.4856C68.9947 25.8512 69.5498 25.4547 70.1842 25.4547H89.5333L91.4365 15.1458H70.5014L67.2501 12.291H57.0998L52.9762 33.0675C52.7383 34.257 52.8176 35.4465 53.1348 36.5567C53.452 37.6669 53.9278 38.6185 54.6415 39.4908C55.3552 40.3631 56.2275 41.0768 57.2584 41.5526C58.2893 42.0284 59.4788 42.3456 60.6683 42.3456H90.247L92.4674 30.8471C92.3881 30.8471 68.2017 30.7678 68.2017 30.6885Z" fill="white"/>
<path d="M136.875 0.791016H69.5497L67.25 12.2894H106.503L100.477 42.344H115.464L120.777 15.9372L116.733 12.2894H134.496L136.875 0.791016Z" fill="white"/>
<path d="M186.279 5.94666C185.962 4.99507 185.565 4.12277 184.931 3.32977C184.297 2.53678 183.504 1.90238 182.552 1.42658C181.6 0.950786 180.649 0.712891 179.539 0.712891H149.643L147.343 12.2113H137.272L131.245 42.2659H146.153L148.215 31.7983C148.295 31.2432 148.85 30.7674 149.484 30.7674H175.891C177.715 30.7674 179.539 30.2123 180.966 29.0228C182.393 27.8333 183.266 26.3266 183.662 24.582L186.517 9.11863C186.676 8.00843 186.596 6.97756 186.279 5.94666ZM171.847 12.4492L170.181 20.5378C170.181 20.6171 170.181 20.6171 170.102 20.6171H150.436L151.308 16.1763L147.343 12.2906H171.767C171.847 12.3699 171.847 12.3699 171.847 12.4492Z" fill="white"/>
<path d="M238.379 22.6777L235.524 18.4748L235.286 18.1576H242.344L257.728 0.791016H239.489L230.528 10.9413L223.709 0.791016H206.501L220.695 22.1226L202.773 42.344H221.012L228.546 33.8589L234.176 42.344H251.384L238.379 22.6777Z" fill="white"/>
</g>
<defs>
<clipPath id="clip0_21062_50799">
<rect width="257.724" height="42.8218" fill="white" transform="translate(0.242188)"/>
</clipPath>
</defs>
</svg>
