<svg width="173" height="42" viewBox="0 0 173 42" fill="none" xmlns="http://www.w3.org/2000/svg">
<g clip-path="url(#clip0_21062_50762)">
<path d="M48.7787 15.9618L49.9237 9.93128C50.1527 8.78625 50.1527 7.64122 49.8474 6.57252C49.542 5.50382 49.084 4.58779 48.397 3.74809C47.7099 2.9084 46.8703 2.22137 45.8779 1.76336C44.8855 1.30534 43.7405 1 42.5954 1H17.7099L15.4962 12.0687H15.4199H36.6412C36.6412 12.145 36.6412 12.145 36.6412 12.145L36.1832 14.6641C36.1832 14.7404 36.1069 14.7404 36.1069 14.8168C36.1069 14.8168 36.1069 14.8168 36.0306 14.8168H18.5496L15.4962 12.0687H5.80153L0 41H40.458C42.2138 41 43.8168 40.4656 45.1909 39.3206C46.5649 38.2519 47.4046 36.7252 47.7099 34.9695L49.542 25.8855C49.6947 24.9695 49.6947 24.0534 49.4657 23.1374C49.2367 22.374 48.855 21.5343 48.3206 20.8473C47.8626 20.313 47.3283 19.7786 46.6412 19.3969C47.7099 18.5572 48.4733 17.3359 48.7787 15.9618ZM36.1069 24.8168L35.1145 29.7786C35.1145 29.855 35.1145 29.855 35.0382 29.855L34.9618 29.9313H16.4886L17.3283 25.6565C17.4046 25.1221 17.9389 24.6641 18.5496 24.6641H36.1069C36.1069 24.7404 36.1069 24.7405 36.1069 24.8168Z" fill="white"/>
<path d="M111.064 6.03817C110.759 5.12214 110.377 4.28244 109.766 3.51908C109.156 2.75572 108.392 2.14504 107.476 1.68702C106.56 1.229 105.644 1 104.575 1H75.7968L73.5831 12.0687H63.8884L58.0869 41H72.4381L74.4228 30.9237C74.4991 30.3893 75.0335 29.9313 75.6442 29.9313H101.064C102.82 29.9313 104.575 29.3969 105.95 28.2519C107.324 27.1069 108.163 25.6565 108.545 23.9771L111.293 9.09159C111.446 8.02289 111.369 7.03053 111.064 6.03817ZM97.1709 12.2977L95.5679 20.084C95.5679 20.1603 95.5678 20.1603 95.4915 20.1603H76.5602L77.3999 15.8855L73.5831 12.145H97.0946C97.1709 12.2214 97.1709 12.2214 97.1709 12.2977Z" fill="white"/>
<path d="M153.644 22.0687L150.896 18.0229L150.667 17.7175H157.461L172.27 1H154.713L146.087 10.771L139.522 1H122.957L136.621 21.5343L119.369 41H136.926L144.178 32.8321L149.598 41H166.163L153.644 22.0687Z" fill="white"/>
</g>
<defs>
<clipPath id="clip0_21062_50762">
<rect width="172.27" height="42" fill="white"/>
</clipPath>
</defs>
</svg>
