<svg width="33" height="33" viewBox="0 0 33 33" fill="none" xmlns="http://www.w3.org/2000/svg">
<g id="linkedin-svgrepo-com (1) 1">
<path id="primary" opacity="0.4" d="M27.3809 2.98828H6.04753C4.57477 2.98828 3.38086 4.18219 3.38086 5.65495V26.9883C3.38086 28.461 4.57477 29.6549 6.04753 29.6549H27.3809C28.8536 29.6549 30.0475 28.461 30.0475 26.9883V5.65495C30.0475 4.18219 28.8536 2.98828 27.3809 2.98828Z" fill="white" fill-opacity="0.75"/>
<path id="secondary" opacity="0.75" d="M23.3809 18.9889V22.9889C23.3809 23.3426 23.2404 23.6817 22.9903 23.9317C22.7403 24.1818 22.4011 24.3223 22.0475 24.3223C21.6939 24.3223 21.3548 24.1818 21.1047 23.9317C20.8547 23.6817 20.7142 23.3426 20.7142 22.9889V18.9889C20.7142 18.6353 20.5737 18.2962 20.3237 18.0461C20.0736 17.7961 19.7345 17.6556 19.3809 17.6556C19.0272 17.6556 18.6881 17.7961 18.4381 18.0461C18.188 18.2962 18.0475 18.6353 18.0475 18.9889V22.9889C18.0475 23.3426 17.9071 23.6817 17.657 23.9317C17.407 24.1818 17.0678 24.3223 16.7142 24.3223C16.3606 24.3223 16.0214 24.1818 15.7714 23.9317C15.5213 23.6817 15.3809 23.3426 15.3809 22.9889V16.3223C15.382 16.0586 15.4612 15.8011 15.6087 15.5825C15.7561 15.3638 15.965 15.1938 16.2091 15.0939C16.4531 14.994 16.7213 14.9687 16.9797 15.0212C17.2381 15.0737 17.4752 15.2017 17.6609 15.3889C18.1972 15.1291 18.7849 14.9925 19.3809 14.9889C20.4417 14.9889 21.4591 15.4104 22.2093 16.1605C22.9594 16.9107 23.3809 17.9281 23.3809 18.9889ZM11.3809 14.9889C11.0272 14.9889 10.6881 15.1294 10.4381 15.3795C10.188 15.6295 10.0475 15.9686 10.0475 16.3223V22.9889C10.0475 23.3426 10.188 23.6817 10.4381 23.9317C10.6881 24.1818 11.0272 24.3223 11.3809 24.3223C11.7345 24.3223 12.0736 24.1818 12.3237 23.9317C12.5737 23.6817 12.7142 23.3426 12.7142 22.9889V16.3223C12.7142 15.9686 12.5737 15.6295 12.3237 15.3795C12.0736 15.1294 11.7345 14.9889 11.3809 14.9889ZM11.3809 8.32227C10.9853 8.32227 10.5986 8.43956 10.2697 8.65933C9.94082 8.87909 9.68448 9.19145 9.5331 9.5569C9.38173 9.92235 9.34212 10.3245 9.41929 10.7124C9.49646 11.1004 9.68694 11.4568 9.96665 11.7365C10.2464 12.0162 10.6027 12.2067 10.9907 12.2838C11.3786 12.361 11.7808 12.3214 12.1462 12.17C12.5117 12.0186 12.824 11.7623 13.0438 11.4334C13.2636 11.1045 13.3809 10.7178 13.3809 10.3223C13.3809 9.79183 13.1701 9.28312 12.7951 8.90805C12.42 8.53298 11.9113 8.32227 11.3809 8.32227Z" fill="white" fill-opacity="0.75"/>
</g>
</svg>
