<svg width="207" height="43" viewBox="0 0 207 43" fill="none" xmlns="http://www.w3.org/2000/svg">
<g id="g102">
<g id="g104">
<path id="path106" d="M24.2754 0.000484467C37.5247 0.000484467 46.1126 8.0275 46.1126 21.4116C46.1126 35.6181 37.0485 42.8223 23.3005 42.8223C15.0611 42.8223 8.51459 40.2138 4.59648 35.0647L4.5875 35.0529C4.50088 34.9388 4.41529 34.8238 4.33125 34.7071L4.31611 34.6859C3.99743 34.2428 3.69775 33.7818 3.41725 33.3027C3.39091 33.2579 3.36407 33.2133 3.3381 33.1682C3.2929 33.0893 3.24866 33.0095 3.2046 32.9294C3.16874 32.865 3.1328 32.8006 3.09771 32.7356C3.058 32.6619 3.0192 32.5876 2.98039 32.5131C2.94236 32.4396 2.90406 32.3661 2.8668 32.2921C2.83121 32.2215 2.79599 32.1507 2.76131 32.0794C2.72183 31.9984 2.6828 31.917 2.64422 31.8351C2.61276 31.7683 2.58139 31.7016 2.5507 31.6341C2.50968 31.5443 2.46947 31.4534 2.42963 31.3626C2.40266 31.3007 2.37514 31.239 2.34858 31.1765C2.30229 31.0678 2.25732 30.9581 2.21285 30.8479C2.19463 30.8025 2.1756 30.7579 2.1576 30.7124C2.0304 30.3917 1.91063 30.0643 1.79794 29.7307C1.78702 29.6982 1.77677 29.6651 1.76594 29.6326C1.7216 29.4985 1.67782 29.3638 1.63566 29.2279C1.62102 29.1806 1.60715 29.1332 1.59287 29.0858C1.55602 28.9636 1.51961 28.8407 1.48457 28.7168C1.46911 28.6627 1.45425 28.6084 1.4392 28.5539C1.40606 28.4331 1.37379 28.3118 1.34233 28.1895C1.32818 28.1348 1.31431 28.0799 1.30053 28.0249C1.26944 27.8997 1.23938 27.7735 1.20996 27.6467C1.19786 27.5944 1.18566 27.5423 1.17383 27.4896C1.14391 27.3553 1.11513 27.2197 1.08711 27.0835C1.07759 27.0371 1.06758 26.991 1.05819 26.9445C1.02401 26.774 0.991922 26.6018 0.961052 26.4286L0.955159 26.3964C0.921614 26.206 0.890015 26.0138 0.860459 25.82C0.857286 25.798 0.854298 25.7757 0.85108 25.7537C0.826375 25.5886 0.803027 25.4226 0.781178 25.2553C0.773698 25.1977 0.766897 25.1392 0.759825 25.0816C0.74337 24.947 0.72719 24.8126 0.712548 24.6767C0.705204 24.6092 0.698403 24.5412 0.691604 24.4732C0.678866 24.3467 0.666673 24.2197 0.655477 24.092C0.649085 24.0172 0.642919 23.9423 0.636981 23.8671C0.627235 23.7444 0.618217 23.6211 0.610012 23.497C0.604889 23.418 0.599582 23.339 0.594822 23.2593C0.587524 23.1339 0.581361 23.0076 0.575559 22.881C0.571932 22.8047 0.568123 22.7289 0.565176 22.6523C0.560009 22.5165 0.556157 22.3795 0.552712 22.2424C0.550899 22.1724 0.548634 22.1028 0.547047 22.0323C0.542967 21.8271 0.541016 21.6201 0.541016 21.4116V19.8181H0.583126C0.931129 13.2588 3.44322 8.10333 7.60765 4.69687V7.81998V21.3002L7.60793 21.3315L7.60765 21.4116C7.60765 21.5509 7.60902 21.6891 7.61129 21.8263C7.61219 21.8697 7.6131 21.9127 7.614 21.956C7.61627 22.0492 7.61808 22.1423 7.62121 22.2346L7.62661 22.3858C7.63023 22.4732 7.63377 22.5603 7.63816 22.6469L7.6456 22.7901C7.65086 22.884 7.65666 22.9771 7.66309 23.0701L7.67094 23.1849C7.67978 23.3082 7.6898 23.4302 7.70072 23.5515L7.70299 23.5747C7.71491 23.7047 7.72815 23.8333 7.74229 23.9612C7.74592 23.995 7.75013 24.0281 7.75412 24.0617C7.76504 24.1547 7.77597 24.2473 7.78803 24.3392C7.79342 24.3805 7.79909 24.4215 7.80475 24.4624C7.81645 24.5477 7.82851 24.6323 7.84125 24.7168L7.8601 24.8391C7.87397 24.9265 7.88839 25.0134 7.90344 25.0998C7.90934 25.1344 7.91514 25.1691 7.9213 25.2036C7.9398 25.3079 7.95942 25.4113 7.97987 25.5141L7.98912 25.5623C8.01305 25.6818 8.03835 25.8 8.06468 25.9173C8.07035 25.9423 8.07637 25.9673 8.08218 25.9922C8.10244 26.0809 8.12302 26.169 8.14473 26.2563C8.15502 26.2975 8.16554 26.3381 8.17597 26.379C8.1946 26.4515 8.2135 26.5235 8.23299 26.5952C8.24446 26.6374 8.25602 26.6795 8.26771 26.7214C8.28748 26.7913 8.30756 26.8606 8.32823 26.9297C8.34083 26.9722 8.35344 27.0149 8.36627 27.057C8.38812 27.1278 8.4106 27.1977 8.43335 27.2678C8.44555 27.3053 8.45738 27.3432 8.46985 27.3806C8.50326 27.4815 8.53807 27.5811 8.57352 27.68C8.59102 27.7283 8.60937 27.776 8.62723 27.8238C8.64727 27.877 8.66708 27.9307 8.68752 27.9835C8.70833 28.0371 8.72964 28.09 8.75112 28.1428C8.76975 28.1891 8.78852 28.2351 8.80765 28.281C8.83117 28.3374 8.85493 28.3934 8.87922 28.449C8.89582 28.4871 8.9125 28.5247 8.92923 28.5622C8.95724 28.6244 8.98512 28.6865 9.01377 28.7479L9.04627 28.816C10.7364 32.3742 13.9221 34.5571 18.6389 35.3804V35.3854C20.0553 35.6317 21.6084 35.7555 23.3006 35.7555C33.8734 35.7555 39.0458 31.0091 39.0458 21.4116L39.0454 21.3568L39.0458 21.3002C39.0458 14.2154 35.9948 9.58552 30.3037 7.79328C25.9226 6.4136 20.5229 6.97768 16.0411 7.63303L11.667 2.16846C13.5825 1.28144 15.7103 0.6562 18.0251 0.312866V0.300762C20.1052 0.0217056 22.1813 0.000484467 24.2754 0.000484467Z" fill="white"/>
<path id="path108" d="M26.8893 27.85L30.9896 33.0527V27.8159V21.2442C30.9896 16.5653 28.4649 14.2514 23.3391 14.2514C18.1848 14.2514 15.6631 16.5653 15.6631 21.2442C15.6631 28.1532 21.5029 28.9699 26.8893 27.85Z" fill="white"/>
</g>
<g id="g110">
<path id="path112" d="M148.622 29.7198C144.391 29.7198 142.538 27.9577 142.538 24.0324C142.538 20.1066 144.391 18.3397 148.622 18.3397C152.901 18.3397 154.754 20.1066 154.754 24.0324C154.754 27.9577 152.901 29.7198 148.622 29.7198ZM149.419 12.2988C146.885 12.2988 144.561 12.9176 143.081 13.9728L140.761 7.05034H138.039H135.785V13.0055V24.0324C135.785 31.883 140.021 35.7656 148.622 35.7656C157.27 35.7656 161.501 31.883 161.501 24.0324C161.501 16.444 157.222 12.2988 149.419 12.2988Z" fill="white"/>
<path id="path114" d="M65.1011 29.7198C60.8223 29.7198 58.9693 28.0008 58.9693 24.0322C58.9693 20.0589 60.8223 18.3397 65.1011 18.3397C69.38 18.3397 71.2281 20.0589 71.2281 24.0322C71.2281 28.0008 69.38 29.7198 65.1011 29.7198ZM65.1011 12.2988C56.4525 12.2988 52.2168 16.1335 52.2168 24.0322C52.2168 31.9262 56.4525 35.7656 65.1011 35.7656C73.7448 35.7656 77.9807 31.9262 77.9807 24.0322C77.9807 16.1335 73.7448 12.2988 65.1011 12.2988Z" fill="white"/>
<path id="path116" d="M93.5056 29.7198C89.2745 29.7198 87.4215 27.9577 87.4215 24.0324C87.4215 20.1066 89.2745 18.3397 93.5056 18.3397C97.7844 18.3397 99.6374 20.1066 99.6374 24.0324C99.6374 27.9577 97.7844 29.7198 93.5056 29.7198ZM94.303 12.2988C91.7687 12.2988 89.4445 12.9176 87.9648 13.9728L85.6447 7.05034H82.923H80.6689V13.0055V24.0324C80.6689 31.883 84.9049 35.7656 93.5056 35.7656C102.154 35.7656 106.385 31.883 106.385 24.0324C106.385 16.444 102.106 12.2988 94.303 12.2988Z" fill="white"/>
<path id="path118" d="M126.105 25.6175C126.105 29.0607 123.855 30.8229 119.448 30.8229C116.534 30.8229 114.992 29.8534 114.992 28.0434C114.992 26.8114 115.828 26.1046 117.552 25.971L124.166 25.4885C125.269 25.3978 125.756 25.2641 126.105 25.0015V25.6175ZM120.904 12.2986C113.096 12.2986 109.299 14.8106 108.994 20.0588H115.742C116.095 18.2967 117.504 17.5039 121.081 17.5039C124.605 17.5039 126.105 18.3826 126.105 20.4123C126.105 21.3387 125.799 21.6061 124.782 21.6921L116.668 22.265C110.14 22.7952 108.244 24.5622 108.244 28.5307C108.244 32.8525 111.859 35.7656 118.168 35.7656C122.977 35.7656 125.976 34.3089 126.549 31.7492L127.852 33.8839L128.75 35.3501L132.857 35.0588V21.119C132.857 15.0302 129.108 12.2986 120.904 12.2986Z" fill="white"/>
<path id="path120" d="M170.325 21.3387C170.812 18.2967 172.794 16.8399 176.5 16.8399C180.029 16.8399 181.972 18.2967 182.412 21.3387H170.325ZM176.5 12.2985C167.765 12.2985 163.443 16.181 163.443 24.032C163.443 31.8401 167.989 35.7656 176.853 35.7656C183.028 35.7656 187.178 33.1199 188.806 28.1771H182.101C181.485 29.9394 179.37 30.9996 176.5 30.9996C172.665 30.9996 170.416 29.0606 170.191 25.6175H189.074C189.159 25.0444 189.207 24.4284 189.207 23.5879C189.207 16.0903 184.924 12.2985 176.5 12.2985Z" fill="white"/>
<path id="path122" d="M197.77 25.5764V19.0482H206.242L204.028 13.0072H197.77L195.631 7.05205H191.065V25.5764C191.065 32.0614 193.539 35.0605 200.55 35.0605H206.242V29.0197H201.3C198.654 29.0197 197.77 28.136 197.77 25.5764Z" fill="white"/>
</g>
</g>
</svg>
