<svg width="181" height="43" viewBox="0 0 181 43" fill="none" xmlns="http://www.w3.org/2000/svg">
<g id="Group 8862">
<path id="Vector" d="M1.31286 39.8068C0.95286 39.8068 0.71286 39.453 0.77286 39.0259L3.19286 21.4293L5.64286 3.61302C5.70286 3.17371 6.04286 2.83203 6.39286 2.83203H27.8629C29.7529 2.83203 31.4029 3.84487 32.3829 5.58989L34.2529 8.92128C34.7329 9.76328 34.9129 10.8371 34.7629 11.9476L34.2529 15.8647C34.1029 16.9996 33.6229 18.0979 32.9029 18.9643L30.1429 22.2591C28.6729 24.0041 26.7429 25.0169 24.8629 25.0169H9.41286C9.05286 25.0169 8.72286 25.3708 8.66286 25.7979L6.84286 39.0136C6.78286 39.453 6.44286 39.7946 6.09286 39.7946H1.31286V39.8068ZM28.3329 10.227H11.4429C11.0829 10.227 10.7529 10.5809 10.6929 11.008L9.89286 16.8288C9.83286 17.2681 10.0729 17.6098 10.4329 17.6098H27.3229C27.6829 17.6098 28.0129 17.2559 28.0729 16.8288L28.8729 11.008C28.9329 10.5687 28.6929 10.227 28.3329 10.227Z" fill="white"/>
<path id="Vector_2" d="M35.2631 39.8064C34.9031 39.8064 34.6631 39.4525 34.7231 39.0254L37.1431 21.4288L39.5931 3.62474C39.6531 3.18543 39.9931 2.84375 40.3431 2.84375H45.1131C45.4731 2.84375 45.7131 3.19763 45.6531 3.62474L43.2031 21.4288L40.7831 39.0254C40.7231 39.4647 40.3831 39.8064 40.0331 39.8064H35.2631Z" fill="white"/>
<path id="Vector_3" d="M81.9931 37.0734L80.0831 33.7054C79.7931 33.1929 80.2031 32.3997 80.7531 32.3997H102.943C103.303 32.3997 103.633 32.0458 103.693 31.6187L104.493 25.7979C104.553 25.3586 104.313 25.0169 103.953 25.0169H94.8731C93.7331 25.0169 92.7331 24.4068 92.1431 23.3451L89.6931 18.9155C89.4131 18.4029 89.8131 17.622 90.3631 17.622H104.973C105.333 17.622 105.663 17.2681 105.723 16.841L106.523 11.0202C106.583 10.5809 106.343 10.2392 105.983 10.2392H83.7931C83.2431 10.2392 83.0531 9.44601 83.4831 8.93348L86.3231 5.56548C87.7831 3.83267 89.7031 2.83203 91.5831 2.83203H107.903C111.103 2.83203 113.273 6.00479 112.733 9.90972L111.163 21.3194L109.593 32.7292C109.053 36.6341 106.023 39.8068 102.813 39.8068H86.4931C84.6131 39.8068 82.9731 38.8062 81.9831 37.0734H81.9931Z" fill="white"/>
<path id="Vector_4" d="M113.363 31.9369L115.953 13.12C116.213 11.2286 117.023 9.39816 118.233 7.97042L122.133 3.35772C122.423 3.01604 122.813 2.80859 123.183 2.80859H146.803C147.353 2.80859 147.543 3.60178 147.113 4.1143L144.273 7.48231C142.813 9.21512 140.893 10.2158 139.013 10.2158H123.053C122.693 10.2158 122.363 10.5696 122.303 10.9967L121.503 16.8175C121.443 17.2568 121.683 17.5985 122.043 17.5985H144.353C145.063 17.5985 145.543 18.3063 145.423 19.1727L145.113 21.3936L143.993 29.4964C143.733 31.3756 142.933 33.1938 141.733 34.6216L137.863 39.2343C137.573 39.5882 137.183 39.7834 136.813 39.7834H118.723C115.163 39.7834 112.763 36.2568 113.353 31.9125L113.363 31.9369ZM137.913 25.0179H121.023C120.663 25.0179 120.333 25.3718 120.273 25.7989L119.473 31.6197C119.413 32.059 119.653 32.4006 120.013 32.4006H136.903C137.263 32.4006 137.593 32.0468 137.653 31.6197L138.453 25.7989C138.513 25.3596 138.273 25.0179 137.913 25.0179Z" fill="white"/>
<path id="Vector_5" d="M147.323 38.5128L150.073 35.2059C151.543 33.4364 153.483 32.4114 155.383 32.4114H170.873C171.233 32.4114 171.563 32.0575 171.623 31.6304L172.423 25.8096C172.483 25.3703 172.243 25.0286 171.883 25.0286H148.933C148.573 25.0286 148.333 24.6748 148.393 24.2477L149.843 13.6799C150.153 11.4468 151.103 9.29909 152.533 7.60288L156.093 3.39288C156.383 3.0512 156.773 2.84375 157.143 2.84375H180.213C180.763 2.84375 180.953 3.63694 180.523 4.14946L177.613 7.55407C176.153 9.26248 174.253 10.2387 172.393 10.2387H157.023C156.663 10.2387 156.333 10.5926 156.273 11.0197L155.473 16.8405C155.413 17.2798 155.653 17.6215 156.013 17.6215H178.323C179.033 17.6215 179.513 18.3292 179.393 19.1956L179.103 21.319L177.973 29.5315C177.713 31.4108 176.913 33.229 175.713 34.6567L171.843 39.2694C171.553 39.6233 171.163 39.8186 170.793 39.8186H147.643C147.093 39.8186 146.903 39.0376 147.333 38.525L147.323 38.5128Z" fill="white"/>
<path id="Vector_6" d="M85.6829 0H77.7329C77.3529 0 76.9629 0.207449 76.6629 0.561334L42.8929 41.4777C42.4729 41.9902 42.6629 42.7712 43.2029 42.7712L51.1129 42.82C51.4929 42.82 51.8929 42.6126 52.1829 42.2587L60.3229 32.3865L59.4729 21.3673L63.4529 28.5914L86.0029 1.29351C86.4229 0.780986 86.2329 0 85.6829 0Z" fill="white"/>
<path id="Vector_7" d="M79.8124 42.7712L74.9224 42.8078C72.6224 42.82 70.6024 41.5875 69.4124 39.4398L48.4324 1.29351C48.1524 0.780986 48.5624 0 49.1024 0H54.0524C56.3424 0 58.3424 1.23249 59.5124 3.368L80.4724 41.4777C80.7524 41.9902 80.3524 42.7712 79.8024 42.7712H79.8124Z" fill="white"/>
</g>
</svg>
