<svg width="33" height="33" viewBox="0 0 33 33" fill="none" xmlns="http://www.w3.org/2000/svg">
<g id="linkedin-svgrepo-com (1) 2">
<path id="primary" opacity="0.4" d="M27.3809 2.98828H6.04753C4.57477 2.98828 3.38086 4.18219 3.38086 5.65495V26.9883C3.38086 28.461 4.57477 29.6549 6.04753 29.6549H27.3809C28.8536 29.6549 30.0475 28.461 30.0475 26.9883V5.65495C30.0475 4.18219 28.8536 2.98828 27.3809 2.98828Z" fill="white" fill-opacity="0.75"/>
<path id="Vector" opacity="0.75" d="M16.7123 21.497C19.5695 21.497 21.8857 19.1809 21.8857 16.3237C21.8857 13.4666 19.5695 11.1504 16.7123 11.1504C13.8552 11.1504 11.5391 13.4666 11.5391 16.3237C11.5391 19.1809 13.8552 21.497 16.7123 21.497Z" fill="white" fill-opacity="0.75"/>
<path id="Vector_2" opacity="0.75" d="M23.3802 10.3202C23.0202 10.3202 22.6869 10.1869 22.4335 9.93352C22.3135 9.80018 22.2202 9.65352 22.1535 9.49352C22.0869 9.33352 22.0469 9.16018 22.0469 8.98685C22.0469 8.81352 22.0869 8.64019 22.1535 8.48019C22.2202 8.30685 22.3135 8.17352 22.4335 8.04018C22.7402 7.73352 23.2069 7.58685 23.6335 7.68018C23.7269 7.69352 23.8069 7.72018 23.8869 7.76018C23.9669 7.78685 24.0469 7.82685 24.1269 7.88018C24.1935 7.92018 24.2602 7.98685 24.3269 8.04018C24.4469 8.17352 24.5402 8.30685 24.6069 8.48019C24.6735 8.64019 24.7135 8.81352 24.7135 8.98685C24.7135 9.16018 24.6735 9.33352 24.6069 9.49352C24.5402 9.65352 24.4469 9.80018 24.3269 9.93352C24.1935 10.0535 24.0469 10.1469 23.8869 10.2135C23.7269 10.2802 23.5535 10.3202 23.3802 10.3202Z" fill="white" fill-opacity="0.75"/>
</g>
</svg>
