<svg width="179" height="43" viewBox="0 0 179 43" fill="none" xmlns="http://www.w3.org/2000/svg">
<g id="Group 8861">
<g id="Vector">
<path d="M0.241211 25.5049L6.56934 34.1634L12.8975 42.8004H19.9097L19.867 21.4643L19.8028 0.149648L16.2326 0.0855116L12.6409 0.0427542V14.9438C12.6409 28.0063 12.5982 29.8021 12.3202 29.5455C12.1492 29.3745 10.9948 27.8352 9.75479 26.1249L7.51001 23.025V0.0427542H0.241211V25.5049Z" fill="white"/>
<path d="M25.2543 42.8004H32.5231L32.5659 35.7881L32.63 28.7973H37.5472L37.6113 35.7881L37.6541 42.8004H44.9229V17.4665L38.8085 9.12875C35.452 4.55369 32.5659 0.641362 32.3735 0.427575C32.0742 0.0855116 31.6252 0.0427542 28.6322 0.0427542H25.2543V42.8004ZM35.281 16.6755C37.3548 19.5402 37.6541 20.032 37.6541 20.7802V21.6354H32.5231V17.3168C32.5231 14.901 32.6087 13.0838 32.7156 13.1907C32.8011 13.319 33.9555 14.8797 35.281 16.6755Z" fill="white"/>
<path d="M50.0538 6.17847V42.8004H57.3226L57.2799 21.4643L57.2157 0.149644L53.9448 0.0213714L50.0538 6.17847Z" fill="white"/>
<path d="M62.4535 42.8218L69.8934 42.7363C75.4946 42.6935 77.5042 42.5866 78.1242 42.3728C79.1932 41.988 80.7538 40.6198 81.2669 39.5936C82.0793 37.9902 82.1434 36.6433 82.0793 20.5664L82.0152 5.06678L81.3097 3.61302C80.5187 2.03099 79.749 1.32549 78.0173 0.619987C76.9484 0.192408 76.4567 0.149651 69.6796 0.0855148L62.4535 0V42.8218ZM74.8319 7.65362C75.2808 8.20947 75.2808 8.40188 75.2808 21.5285C75.2808 34.313 75.2595 34.8689 74.8746 35.3392C74.4898 35.8095 74.2974 35.8523 71.9885 35.9164L69.5086 36.0019V7.09777H71.9457C74.3402 7.09777 74.4043 7.11915 74.8319 7.65362Z" fill="white"/>
<path d="M89.2415 3.14268L87.2533 6.22123V42.8004L95.1848 42.7576L103.116 42.6935L107.349 36.0661L94.629 35.8523L94.5648 29.909L94.5221 23.987H98.9261L101.064 20.6306C102.218 18.792 103.223 17.1886 103.245 17.1031C103.287 17.0175 101.342 16.932 98.9261 16.932H94.5221V7.09776H103.009L105.169 3.67716C106.366 1.79582 107.349 0.192409 107.349 0.149648C107.349 0.0855116 103.715 0.0427542 99.2896 0.0427542H91.2084L89.2415 3.14268Z" fill="white"/>
<path d="M111.689 3.14268L109.701 6.28537V42.8004H116.863C123.49 42.8004 124.089 42.779 125.158 42.3728C126.718 41.7956 127.937 40.6839 128.664 39.2088L129.262 37.9902V22.3836L128.685 21.3788C128.343 20.8443 127.83 20.1816 127.531 19.9464C126.911 19.4547 126.889 19.5189 128.45 17.1031L129.412 15.6279L129.327 10.2404C129.262 5.10953 129.241 4.81023 128.771 3.9337C128.023 2.5227 126.889 1.38962 125.564 0.748252L124.345 0.149644L113.656 0.0213714L111.689 3.14268ZM121.481 7.50396C121.972 7.88878 121.994 8.08119 122.058 10.7108L122.143 13.5114L119.834 17.1031C118.573 19.0699 117.419 20.823 117.269 20.994C117.012 21.2505 116.97 20.203 116.97 14.1955V7.09776H118.979C120.625 7.09776 121.074 7.1619 121.481 7.50396ZM122.101 30.4862C122.101 34.5909 122.101 34.6551 121.587 35.2537C121.096 35.8309 120.989 35.8523 119.065 35.8523H117.077L117.012 34.9544C116.948 34.142 117.119 33.7785 118.701 31.32C119.663 29.8235 120.775 28.0704 121.181 27.4504C121.566 26.8518 121.951 26.3387 121.994 26.3387C122.058 26.3387 122.101 28.1987 122.101 30.4862Z" fill="white"/>
<path d="M138.049 0.855149C137.771 1.30411 136.916 2.65097 136.125 3.84819L134.714 6.02883V42.8004H150.427L152.522 39.5081C153.655 37.6909 154.596 36.1302 154.596 36.0233C154.596 35.9378 151.753 35.8737 148.289 35.9164L141.983 35.9806V24.0084L146.344 23.8801L148.439 20.5664C149.593 18.7492 150.534 17.1886 150.534 17.0817C150.534 16.9962 148.61 16.932 146.258 16.932H141.983V7.09776L146.194 7.05501L150.406 6.99087L152.501 3.71991C153.655 1.90271 154.596 0.34206 154.596 0.235167C154.596 0.128269 151.197 0.0427542 146.579 0.0427542H138.562L138.049 0.855149Z" fill="white"/>
<path d="M159.108 3.44199C157.932 5.30195 156.948 6.88398 156.948 6.96949C156.948 7.03363 158.68 7.09776 160.797 7.09776H164.645V42.8004H171.7L171.743 25.2056C171.743 15.5424 171.764 7.50396 171.764 7.35431C171.743 7.1619 172.555 7.09776 175.142 7.09776H178.541V0.0427542H161.288L159.108 3.44199Z" fill="white"/>
</g>
</g>
</svg>
